<?xml version="1.0" standalone="no"?>
<!DOCTYPE svg PUBLIC "-//W3C//DTD SVG 20010904//EN"
 "http://www.w3.org/TR/2001/REC-SVG-20010904/DTD/svg10.dtd">
<svg version="1.0" xmlns="http://www.w3.org/2000/svg"
 width="" height="" viewBox="0 0 500.000000 500.000000"
 preserveAspectRatio="xMidYMid meet">

<g transform="translate(0.000000,500.000000) scale(0.100000,-0.100000)"
fill="#000000" stroke="none">
<path d="M3106 3641 l-238 -238 -69 -6 c-110 -9 -129 -29 -129 -135 l0 -56
-245 -239 c-135 -132 -245 -246 -245 -254 0 -38 35 -16 146 91 101 98 120 111
122 93 6 -33 32 -57 64 -57 32 0 68 31 68 59 0 27 -38 71 -63 71 -17 0 -4 17
63 85 69 70 86 82 91 67 4 -11 38 -28 98 -47 l92 -29 -3 -66 -3 -65 -33 -3
c-44 -4 -62 12 -62 59 l0 39 -46 0 -46 0 4 -71 c3 -59 8 -75 26 -90 50 -40
186 -36 228 6 22 23 24 31 24 139 l0 114 -95 32 c-93 31 -95 32 -95 63 0 22
10 42 36 68 45 47 64 42 64 -17 l0 -44 45 0 45 0 0 64 c0 47 -5 69 -19 88
l-20 24 229 229 c126 126 231 227 233 225 2 -3 18 -43 35 -90 60 -160 65 -190
67 -390 1 -162 4 -194 24 -255 40 -124 83 -235 92 -235 12 0 11 14 0 25 -13
13 -65 157 -87 237 -14 48 -18 107 -19 248 l-1 185 -37 110 c-40 119 -76 197
-92 202 -6 2 -117 -104 -249 -236z"/>
<path d="M570 3372 l-30 -30 0 -235 0 -235 32 -27 c30 -26 36 -27 126 -23 89
3 95 5 118 31 24 28 24 34 22 155 l-3 127 -67 3 -68 3 0 -51 c0 -47 2 -50 25
-50 22 0 25 -4 25 -37 0 -74 -7 -83 -60 -83 -34 0 -50 4 -54 16 -8 20 -8 312
0 342 5 19 13 22 54 22 50 0 60 -10 60 -67 0 -20 5 -23 45 -23 l45 0 0 64 c0
54 -4 70 -24 93 -23 26 -29 28 -120 31 -95 4 -96 4 -126 -26z"/>
<path d="M984 3391 c-51 -22 -54 -39 -54 -283 0 -225 0 -227 24 -255 23 -27
28 -28 120 -28 86 0 98 2 118 23 23 22 23 26 23 262 0 236 0 240 -23 262 -19
20 -34 23 -105 25 -45 2 -92 -1 -103 -6z m130 -97 c13 -13 16 -44 16 -183 0
-190 -4 -205 -60 -199 l-35 3 -3 189 c-2 145 1 191 10 198 21 13 55 9 72 -8z"/>
<path d="M1305 3387 c-3 -7 -4 -136 -3 -287 l3 -275 48 -3 47 -3 0 157 c0 87
3 154 6 151 4 -3 30 -73 59 -154 l53 -148 46 -3 46 -3 0 291 0 291 -47 -3 -48
-3 -5 -150 -5 -149 -54 152 -54 152 -44 0 c-26 0 -46 -5 -48 -13z"/>
<path d="M1700 3110 l0 -290 146 0 145 0 -3 48 -3 47 -92 3 -93 3 0 69 0 69
73 3 72 3 0 45 0 45 -72 3 -73 3 0 69 0 69 93 3 92 3 3 48 3 47 -145 0 -146 0
0 -290z"/>
<path d="M2105 3388 c-3 -7 -4 -137 -3 -288 l3 -275 40 0 40 0 3 123 3 122 74
0 75 0 0 40 0 40 -75 0 -75 0 0 80 0 80 96 0 95 0 -3 43 -3 42 -133 3 c-101 2
-134 0 -137 -10z"/>
<path d="M3057 3394 c-4 -4 -7 -135 -7 -291 l0 -284 43 3 42 3 3 123 3 122 49
0 50 0 0 -126 0 -125 43 3 42 3 0 285 0 285 -40 0 -40 0 -3 -122 -3 -123 -49
0 -49 0 -3 123 -3 122 -35 3 c-20 2 -39 0 -43 -4z"/>
<path d="M3652 3108 l3 -283 40 0 40 0 5 160 c6 183 0 185 78 -30 l47 -130 43
-3 42 -3 0 285 0 286 -45 0 -45 0 0 -157 c0 -89 -4 -153 -9 -148 -4 6 -32 76
-61 158 l-52 147 -44 0 -44 0 2 -282z"/>
<path d="M4050 3350 c0 -29 4 -40 15 -40 14 0 14 -4 1 -35 -14 -33 -14 -35 4
-35 30 0 60 52 60 104 l0 46 -40 0 -40 0 0 -40z"/>
<path d="M3455 2698 c-11 -6 -31 -21 -45 -33 -14 -12 -38 -29 -54 -36 -38 -18
-56 -46 -37 -58 12 -8 12 -13 -2 -35 -22 -32 -51 -40 -106 -27 -40 9 -42 8
-28 -6 24 -24 187 -34 212 -13 7 5 14 7 17 5 3 -3 17 -1 32 5 18 7 26 16 24
28 -2 9 9 41 24 70 28 53 37 88 18 77 -5 -3 -10 3 -10 14 0 23 -15 26 -45 9z"/>
</g>
</svg>
